<svg xmlns="http://www.w3.org/2000/svg" width="24" height="24">
    <defs>
        <clipPath id="b">
            <path d="M0 0h24v24H0z"/>
        </clipPath>
        <style>
            .b{fill:none}.c{fill:#fff}
        </style>
    </defs>
    <g id="a" style="clip-path:url(#b)">
        <path class="b" d="M0 0h24v24H0Z"/>
        <path d="M21 5.088a10.544 10.544 0 0 1 .238 14.667L21 20l-4.971 4.97a3.515 3.515 0 0 1-4.8.158l-.169-.158L6.088 20A10.544 10.544 0 1 1 21 5.088Z" transform="translate(-1.545 -2)"/>
        <path class="b" d="M0 0h24v24H0Z"/>
        <path class="b" d="M0 0h11.081v11.081H0Z" transform="translate(6.459 4.77)"/>
        <path class="c" d="M3.462 2.75h.923a.713.713 0 0 1 .712.712v1.847a.713.713 0 0 1-.712.712h-.923a.713.713 0 0 1-.712-.712V3.462a.713.713 0 0 1 .712-.712Zm.923 2.77a.212.212 0 0 0 .215-.211V3.462a.212.212 0 0 0-.212-.212h-.926a.212.212 0 0 0-.212.212v1.847a.212.212 0 0 0 .212.212Z" transform="translate(4.844 3.155)"/>
        <path class="c" d="M16.923 17.1a1.173 1.173 0 1 1 1.177-1.177 1.175 1.175 0 0 1-1.177 1.177Zm0-1.847a.673.673 0 1 0 .673.673.674.674 0 0 0-.673-.676Z" transform="translate(-2.154 -3.304)"/>
        <path class="c" d="M15.541 10.791h-.923a.25.25 0 0 1 0-.5h.673V8.232c0-1.644-.923-2.982-2.059-2.982H10a.25.25 0 1 1 0-.5h3.232c1.411 0 2.559 1.562 2.559 3.482v2.309a.25.25 0 0 1-.25.25Z" transform="translate(1.076 2.079)"/>
        <path class="c" d="M11.694 17.25H8a.25.25 0 0 1 0-.5h3.694a.25.25 0 0 1 0 .5Z" transform="translate(2.153 -4.381)"/>
        <path class="c" d="M18.77 8.482h-2.077a.25.25 0 0 1-.244-.2l-.693-3.232a.25.25 0 0 1 .489-.1l.65 3.034h1.875a.25.25 0 1 1 0 .5Z" transform="translate(-2.154 2.079)"/>
        <path class="c" d="M12.963 10.25H9.5a.25.25 0 0 1 0-.5h3.463a.25.25 0 0 1 0 .5Z" transform="translate(1.345 -.613)"/>
        <path class="c" d="M12 7.559a.25.25 0 0 1-.25-.25V5a.25.25 0 0 1 .5 0v2.309a.25.25 0 0 1-.25.25Z" transform="translate(0 2.079)"/>
        <path class="c" d="M5 14.329a.25.25 0 0 1-.25-.25V9a.25.25 0 0 1 .5 0v5.079a.25.25 0 0 1-.25.25Z" transform="translate(3.768 -.075)"/>
    </g>
</svg>
