<svg xmlns="http://www.w3.org/2000/svg" width="24" height="24">
    <defs>
        <clipPath id="b">
            <path d="M0 0h24v24H0z"/>
        </clipPath>
        <style>
            .b{fill:none}
        </style>
    </defs>
    <g id="a" style="clip-path:url(#b)">
        <path class="b" d="M0 0h24v24H0Z"/>
        <path d="M21 5.088a10.544 10.544 0 0 1 .238 14.667L21 20l-4.971 4.97a3.515 3.515 0 0 1-4.8.158l-.169-.158L6.088 20A10.544 10.544 0 1 1 21 5.088Z" transform="translate(-1.544 -2)"/>
        <path class="b" d="M0 0h24v24H0Z"/>
        <path d="M11.9 2.749a1.395 1.395 0 0 1 .986 2.381l-1.51 1.563 1.348 4.043a.25.25 0 0 1-.059.254l-1.4 1.423a.25.25 0 0 1-.4-.057L9.079 9l-1.363 1.36v1.571a.25.25 0 0 1-.073.177l-1.117 1.116a.25.25 0 0 1-.414-.1l-.8-2.393-2.393-.8a.25.25 0 0 1-.1-.414L3.94 8.4a.25.25 0 0 1 .177-.073h1.57l1.364-1.359-3.332-1.794a.25.25 0 0 1-.058-.4l1.4-1.4a.25.25 0 0 1 .256-.06l4.037 1.354 1.566-1.513a1.383 1.383 0 0 1 .98-.406Zm.3 8-1.343-4.042a.25.25 0 0 1 .057-.253l1.619-1.674a.895.895 0 1 0-1.262-1.268L9.593 5.133a.25.25 0 0 1-.253.057L5.3 3.844 4.252 4.893l3.332 1.794a.25.25 0 0 1 .058.4L5.968 8.758a.25.25 0 0 1-.177.073H4.22l-.757.757 2.128.709a.25.25 0 0 1 .158.158l.709 2.128.757-.757v-1.57a.25.25 0 0 1 .073-.177L8.963 8.4a.25.25 0 0 1 .4.059l1.793 3.356Z" transform="translate(3.976 2.784)" style="fill:#fff"/>
    </g>
</svg>
