<svg xmlns="http://www.w3.org/2000/svg" xmlns:xlink="http://www.w3.org/1999/xlink" preserveAspectRatio="xMidYMid meet" version="1.0" viewBox="26.4 46.9 423.1 406.7" zoomAndPan="magnify" style="fill: rgb(0, 0, 0);" original_string_length="2791"><g id="__id337_sjxk3snmlu"><path clip-rule="evenodd" d="M389.19,107.22c-36.6-36.6-87.18-59.25-143.03-59.25s-106.43,22.64-143.03,59.25 c-19.42,19.42-34.9,42.76-45.16,68.74c25.03-49.79,44.61-28.62,44.61-28.62c-23.81-4.55-39.01,18.24-44.69,28.84 c-4.91,12.47-8.61,25.54-10.97,39.07c2.67-7.58,10.37-24.43,27.53-30.22c22.42-7.57,5.93-0.51-8.83,11.84 c-11.61,9.72-17.25,17.86-19.13,20.89c-1.66,10.29-2.55,20.83-2.6,31.58c1.22-10.33,5.65-29.72,21.81-31.97 c21.47-2.99-15.57,13-21.78,36.21c0.88,54.54,23.34,103.84,59.22,139.71c36.6,36.6,87.17,59.25,143.03,59.25 s106.43-22.64,143.03-59.25c36.6-36.6,59.25-87.18,59.25-143.03S425.79,143.83,389.19,107.22 M46.68,210.6 c-2.44-7.57-20.2-12.25-10.81-18c8.37-5.13,10.97,9.53,11.58,14.31c0.27-1.24,0.55-2.47,0.84-3.69c1.51-14,1.72-40.51-14.93-56.16 c0,0,26.33-5.86,18.61,42.69c3.87-12.42,8.89-24.33,14.95-35.6c3.72-9.33,8.64-24.54,14.59-36.7c-1.16-1.04-4.48-4.98-3.51-15.46 c-0.73-0.32-1.2-1.08-1.11-1.92c0.45-3.97,2.49-8.92,2.5-8.94c0.37-0.96,1.44-1.44,2.4-1.07c0.96,0.37,1.44,1.44,1.07,2.4 c0,0.01-1.87,4.56-2.27,8.02c-0.09,0.85-0.74,1.5-1.55,1.64c-0.89,9.52,1.81,13.23,2.95,14.35c2-3.99,4.12-7.61,6.34-10.54 c0.02-0.02,5.78-7.54,9.65-13.46c-0.51-1.27-2.38-6.98,0.5-15.75c-0.28-0.31-0.4-0.75-0.27-1.18c0.75-2.58,2.66-5.64,2.67-5.65 c0.35-0.6,1.12-0.79,1.71-0.44c0.6,0.35,0.79,1.12,0.44,1.71c0,0.01-1.76,2.81-2.41,5.06c-0.15,0.54-0.64,0.89-1.16,0.91 c-2.37,7.29-1.35,12.29-0.74,14.25c4.04-5.76,10.81-11.5,10.83-11.51l0.34,0.4l0.34,0.4c-0.02,0.02-7.37,6.24-11.21,12.14 c-2.49,3.82-5.81,8.37-7.89,11.15c3.27-2.21,8.87-5.87,12.98-7.86c0.04-0.38,0.24-0.73,0.59-0.95c1.99-1.23,4.22-3.67,4.23-3.68 c0.48-0.5,1.27-0.51,1.77-0.04c0.5,0.48,0.51,1.27,0.04,1.77c-0.01,0.01-2.44,2.67-4.72,4.09c-0.51,0.31-1.15,0.22-1.55-0.19 c-5.74,2.8-14.36,8.83-15.32,9.5l-6.5,10.94l-11.84,29.66c8.78-14.9,19.4-28.59,31.55-40.74c36.8-36.8,87.63-59.56,143.78-59.56 c56.15,0,106.99,22.76,143.78,59.56c36.8,36.8,59.56,87.63,59.56,143.78c0,56.15-22.76,106.99-59.56,143.78 c-36.8,36.8-87.63,59.56-143.78,59.56c-56.15,0-106.98-22.76-143.78-59.56c-36.8-36.8-59.56-87.63-59.56-143.78 c0-4.65,0.16-9.27,0.47-13.85c-0.09-0.8-2.02-17.75-11.06-26.18c-0.95-0.06-2.26-0.76-3.41-1.92c-1.67-1.67-2.39-3.65-1.62-4.43 c0.78-0.78,2.76-0.06,4.44,1.61c1.61,1.6,2.34,3.5,1.7,4.34c6.32,6.2,9.15,16.35,10.31,22.13C44.28,224.72,45.3,217.6,46.68,210.6z M113.08,77.44l-3.18,2.84c0,0,8.23,0.24,8.37-3.26c0.14-3.5-4.86-0.84-6.06,1.21c0,0,0.88-2.61,0.39-4.15 c-0.49-1.54-3.36-1.54-3.43,0.42c-0.07,1.96,0.74,5.78,0.74,5.78" fill-rule="evenodd" style="fill: rgb(232, 188, 205);"/></g></svg>