<svg xmlns="http://www.w3.org/2000/svg" xmlns:xlink="http://www.w3.org/1999/xlink" preserveAspectRatio="xMidYMid meet" version="1.0" viewBox="-0.1 0.0 858.0 781.5" zoomAndPan="magnify" style="fill: rgb(0, 0, 0);" original_string_length="18522"><g id="__id344_sjxk3snmlu" style="fill: rgb(232, 188, 205);"><path d="M365.6,23.1c-10.8,4.9-22.4,7.1-33.9,9.4c-11.8,2.3-23.4,5.2-34.5,9.6c-9.2,3.7-18.4,7.7-25,15.4 c-6.2,7.2-10.9,15.7-18.4,21.6c-0.2,0.1-0.3,0.3-0.3,0.5c-0.4,0.2-0.8,0.4-1.2,0.6c-0.3,0.2-0.5,0.4-0.6,0.7 c-18.6,8.5-34.8,23.3-48.8,37.6c-16.1,16.6-31,34.6-44.7,53.1c-2.1,2.9-4.2,5.8-6.3,8.7c1.6-3.5,3.2-7.1,4.6-10.7 c5.1-12.8,8.7-26.3,10.5-39.9c1.9-13.7,0.8-27,1-40.7c0.1-7.9,1.2-15.6,3.3-23.2c1.6-6.2,5.3-12.9,5.6-19.2c0-0.2-0.1-0.3-0.2-0.4 c0.1-0.4-0.4-0.8-0.8-0.5c-11,8.6-21.2,17.8-27.3,30.6c-6,12.7-10.5,27.6-12.3,41.5c-2.2,16.2,0.3,32.4,1.1,48.6 c0.4,7.6,0.5,15.2-0.3,22.8c-0.8,7.8-3.4,14.5-5.6,21.8c-16.2,26.4-30.1,54.4-39.7,83.5c-2,6.1-3.9,12.2-5.5,18.4 c-0.2-2-0.3-3.9-0.6-5.8c-1.4-10.8-4.5-21.4-9.1-31.3c-0.5-1.1-1.1-2.2-1.7-3.3c0-0.2-0.1-0.5-0.1-0.7c0.6-3.6-0.9-7.8-0.6-11.6 c0.4-5.7,2-11.4,4.7-16.5c4.4-8.3,13-13.4,16.4-22.1c4.1,2.1,9.4,0.3,13.1-1.9c4-2.4,6.6-6.6,5.6-11.4c-1-4.9-5.9-8.6-10.7-8.9 c-5-0.3-9.1,3.4-10.9,7.8c-1.7,4.3-2,10.8,2,14c-2.8,5.6-8.2,8.8-12.3,13.2c-3.5,3.8-6.3,8.4-8.3,13.2c-0.5,1.3-1,2.7-1.4,4.1 c0.4-4.8,1.3-9.6,2.1-14.3c1.8-10.7,2.6-21.5,1.1-32.2c0.1-0.1,0.2-0.3,0.2-0.5c4.6-2,9.6-5,11.6-9.9c1.8-4.4,1.1-9.6-1.8-13.4 c-1.4-1.8-3.3-3.4-5.5-4.2c-2-0.7-4.9-1-6.7,0.3c-2,1.4-3.1,3.8-3.9,6c-1,2.8-1.8,5.9-2,8.9c-0.4,5.3,1.7,11.4,7.3,13 c-0.3,6.2,0,12.5-0.6,18.7c-0.6,7.1-2.3,14-3.5,21c-0.9,5.1-1.9,11.8-1.5,17.9c-8.8-13.8-19.3-26.6-23.7-42.6 c0.9-2.5,1.3-5.2,2-7.8c0.6-2.4,1.6-4.9,1.4-7.5c-0.3-4.6-4.8-7.7-9-8.5c-4.4-0.8-8.2,1.4-9.9,5.5c-1.7,4.2-0.6,8.7,1.9,12.4 c2.6,3.8,7.2,8.4,12.3,6.8c1.8,12.2,7.9,22.5,14.4,32.7c-12.6-5.3-23.5-12.8-34.9-20.5c0-0.3-0.2-0.6-0.5-0.7c-0.1,0-0.2,0-0.2-0.1 c-1-2.6-0.8-5.4-1.2-8.2c-0.3-2.3-1.1-4.4-2.5-6.2c-2.7-3.4-7.4-5.3-11.6-4c-4,1.2-7.2,5.1-7.5,9.2c-0.3,4.7,2.7,10.1,6.6,12.7 c2.2,1.5,5.1,2.1,7.8,1.4c2.7-0.7,5.3-4.3,8.3-3.3c0.1,0,0.2,0,0.2,0c10.2,10.5,24.3,17.8,37.9,23.1c3,4.8,6.1,9.5,8.7,14.5 c5.1,9.8,8.7,20.4,10.6,31.3c0.1,0.4,0.1,0.8,0.2,1.2c-0.6-0.9-1.2-1.7-1.8-2.5c-2.8-4.3-5.7-8.4-9.1-12.2 c-5.7-6.4-12.8-11.4-21.5-12.5c0,0,0-0.1,0-0.1c0.1-4.7,0-9.7-2.9-13.6c-1.2-1.6-2.8-2.9-4.7-3.6c-2.1-0.7-4.9-1.1-7-0.4 c-4.1,1.3-6,6.7-5.3,10.6c0.2,1.1,0.7,2.1,1.2,3.2c0.6,1.3,0.4,2.5,0.4,3.9c0,2,1.1,3.6,2.7,4.6c4.8,2.9,10.3-1.3,14.8-3 c0.4-0.2,0.6-0.5,0.6-0.8c9.6,2.5,16.8,8.8,22.5,16.7c2.4,3.3,4.6,6.8,6.8,10.3c1.4,2.2,2.7,4.7,4.3,6.9c0.2,2.7,0.4,5.4,0.4,8.1 c0.1,4.2-0.8,9-0.2,13.2c-1.2,6-2.2,12-3.1,18c-0.8,6-2.3,12.2-0.7,18.2c0.5,1.8,3.4,2.5,4.3,0.6c2.1-4.7,2.2-9.4,2.9-14.5 c0.8-6,1.7-12,2.9-18c1-5.3,2.2-10.6,3.5-15.9c16.9,0,32.6-5.6,46.1-15.7c7.7-5.7,14.8-11.4,24.1-14.2c8.2-2.4,16.7-3,24.7-6.4 c26.3-11.2,36.9-42.4,63-54.4c0.8-0.4,0.2-1.8-0.6-1.5c-17.5,6.4-36.8,8.3-55.1,11.3c-16.1,2.6-32.2,6.2-47.2,12.9 c-23.3,10.5-40,30.7-51.1,53.4c0.2-0.6,0.3-1.2,0.5-1.8c6.5-21.8,14.8-43.4,25-63.8c5.4-10.8,11.2-21.5,17.5-31.9 c3.4-2.1,6-5.6,9-8.1c4-3.4,8.4-6.5,12.9-9.3c3.5-2.2,7.1-4.2,10.8-6.1c3.5,0.2,6.9,0.2,10.4,0.4c0.4,0.2,0.8,0.4,1.3,0.6 c1,0.6,2.1,1.2,3,2c1.5,1.2,3,2.6,4.5,3.9c-0.1,0.2-0.2,0.3-0.3,0.5c-0.6,0.4-1.1,1-1.6,1.5c-2.2,2.2-2.8,6.2-1.6,9.1 c1.6,3.8,6.7,5.7,10,2.9c3.5-2.9,3.7-9,1.1-12.5c-1.1-1.6-2.9-3.4-5-3.2c-0.5,0.1-1,0.2-1.5,0.5c-1.3-1.7-2.7-3.2-4.3-4.5 c0.4,0.1,0.8,0.1,1.2,0.2c5.3,1.2,10.4,2.9,15.6,4.4c-0.1,0.2-0.3,0.3-0.4,0.5c-0.2,0.3-0.6,0.8-0.7,1.3c-1.2,2.9-0.2,6.5,2.6,8.2 c3.4,2,7.9,0.5,9.7-2.9c1.6-2.9,1.5-8.6-1.9-10.3c-2.3-1.1-7.6-0.7-8.8,2c-7.7-3.5-17.8-7.9-27-7.8c3.6-1.7,7.3-3.4,10.9-5 c5.3-2.4,10.7-4.6,16.1-7c3.6,1.3,7.8,1.1,11.5,1.3c5.7,0.3,11.4,0.7,17,0.4c8.6,1.8,14.7,9.4,23.3,11.3c-0.1,0.3-0.1,0.6,0,0.8 c-1.7,5-0.4,9.9,5,12.1c4.6,1.9,12.9,1.4,15.8-3.3c2.6-4.3,0.2-12-4.4-14.1c-4.9-2.3-11.6-0.3-15.4,3.3c-3.8-2.5-8-4.3-11.9-6.8 c-2.1-1.4-4.2-2.8-6.4-3.9c6.8-0.9,14-2.9,19.1-7.2c0.7,3.9,6.2,5.1,9.8,4.8c2-0.2,4.7-0.4,6-2.2c1.5-2,2.3-5.2,1.9-7.6 c-0.7-4.2-5-9-9.5-8.4c-5.6,0.7-8.8,6.7-8.8,11.9c-4.2,2.1-8.3,4.1-12.9,5.2c-4.9,1.1-9.8,1.3-14.8,1.3c-4.7,0-9.3-0.3-14-0.6 c-2-0.1-4.1-0.4-6.2-0.5c2.4-1.1,4.8-2.2,7.2-3.3c0.4,0.1,0.9,0,1.3-0.4c0.1-0.1,0.2-0.2,0.2-0.3c8.9-4.3,17.4-9.3,24.9-15.6 c2.1,3.3,12.3-0.3,14.4-1.6c5.1-3.2,7.8-11.6,3.7-16.6c-4.3-5.3-11.6-2.6-15.6,1.7c-2.6,2.8-6.3,11.4-2.9,15 c-6.9,4.7-14.2,8.6-21.5,12.2c1.5-3.8,2.2-8.2,3.4-12c2.2-7.3,5.1-14,9.4-20.2c0,0,0.1,0,0.1,0.1c0.2,0.2,0.3,0.3,0.5,0.5 c4.1,3.1,12.7-1.2,13.8-5.8c0.8-2.9-0.4-6.5-2.2-8.9c-1.8-2.5-5.3-2.7-8-1.7c-2.7,1-4.4,2.9-5.3,5.2c-1.3,2.5-1.1,6.4,0.1,9 c0,0.1,0,0.1,0.1,0.2c-4.5,4.3-7.3,9.7-9.4,15.5c-1.2,3.3-2.2,6.7-3.1,10.1c-0.9,3.4-1.6,7.2-3.6,10.1c-11.4,5.3-23,9.8-34.8,14.6 c-9.4,3.9-18.5,8.4-27,13.9c-3,2-6,4.1-8.8,6.4c15.2-23.6,32.4-46.1,50.8-67c5-5.7,10.2-11.3,15.6-16.6c6-2.5,12.1-4.6,18.5-5.5 c6.8-1,13.5-0.5,20.3,0.3c13.6,1.4,27.3,3.4,41,2.9c12.6-0.4,24.9-2.8,36.3-8.4c11.7-5.7,22.6-13.1,34.3-19 c0.2,0.1,0.3,0.1,0.5,0.1c0.2,0,0.3-0.1,0.5-0.2c0.2-0.1,0.3-0.2,0.4-0.3c0.2-0.2,0.3-0.5,0.2-0.8c0.3-0.3,0.3-1-0.3-1.1 c-13.7-3.1-28.8-2.9-42.8-2.6c-14.1,0.3-28.3,1.6-42.1,4.3c-12.6,2.4-24.9,6.1-36.7,11.1c-5.8,2.5-11.5,5.2-17,8.3 c-1.1,0.6-2.3,1.3-3.5,1.9c0.7-0.6,1.3-1.2,2-1.7c8.9-7.6,18.6-13.7,28.6-19.6c0.2,0,0.4,0,0.5-0.1c10.3-4.5,22.2-3.8,33-6.7 c5.7-1.6,11.1-4.1,16.7-5.9c5.5-1.8,11-3.1,16.6-4.6c9.5-2.6,17.7-8.6,25-15.1c4-3.5,7.7-7.3,11.2-11.3c3.7-4.3,6.7-9.5,11.3-13 C368.7,24.6,367.4,22.3,365.6,23.1z M93.5,209.6c1-3.9,4-7.6,8.3-7.9c4.2-0.3,7.9,2.7,9.5,6.4c0.8,1.7,1,3.5,0.3,5.3 c-0.6,1.8-2,3.2-3.4,4.4c-3.4,2.6-8.9,4.9-13,2.7c0,0-0.1,0-0.1,0C92.2,217.9,92.6,212.9,93.5,209.6z M68.9,193.8 c0-2.7,0.5-5.3,1.2-7.8c0.6-2.2,1.2-4.7,2.6-6.5c0.7-1,1.8-1.8,3-1.9c1.3-0.1,2.5,0.5,3.7,1c1.7,0.8,3.4,1.9,4.7,3.3 c2.9,3.2,3.6,7.7,2.2,11.8c-1.8,5-6.7,7.6-11.1,10.1C70.9,202.5,68.9,198,68.9,193.8z M44.1,219.4c-0.1,0-0.3,0-0.4,0 c-3.8,1.1-7.4-2.4-9.5-5.2c-2.2-2.9-3.7-6.7-2.6-10.4c1-3.4,3.9-5.8,7.5-5.4c3.9,0.4,8.2,3.3,8.3,7.5 C47.6,210.6,45.1,214.9,44.1,219.4z M17.3,234.2c-2,1.4-3.9,2.5-6.4,2.1c-4.6-0.8-7.7-5.2-8.9-9.5c-1.1-4.2,0.8-8.3,4.7-10.1 c3.7-1.7,7.9-0.6,10.6,2.3c1.8,1.9,2.5,4.1,2.8,6.6c0.2,2.4,0.3,4.7,1,7C19.8,232.7,18.5,233.4,17.3,234.2z M35.2,280.9 c-1.6-0.2-3.3-1.3-3.7-2.9c-0.2-1,0-2,0-3c0-1-0.3-1.9-0.7-2.8c-0.9-2-1.2-3.8-0.6-5.9c0.5-1.6,1.3-3.3,2.7-4.2 c1.6-1,3.9-0.7,5.6-0.4c1.8,0.4,3.3,1.2,4.5,2.5c3.1,3.4,3.1,8.5,3.2,12.8c0,0,0,0,0,0C42.6,278.2,39.3,281.5,35.2,280.9z M117.6,284.9c-5.2,3.6-9.8,8-13.7,12.9c-2,2.6-3.8,5.3-5.6,8.1c-0.1,0.2-0.3,0.5-0.4,0.7c4.2-7.9,8.4-15.6,13.9-22.8 c10.2-13.5,23.3-23.7,39-30.2c14.9-6.2,31-9,46.8-11.6c14.5-2.4,28.6-4.9,42.7-8.7C220,245.5,209,269.8,187,280.2 c-7.8,3.7-16.6,5.5-24.7,8.2c-7.8,2.6-14.4,6.2-21,10.9c-7.2,5.1-14.4,10.1-22.9,13c-5.2,1.8-10.5,2.9-16,3.6 c0.4-0.2,0.8-0.3,1.2-0.5c4.1-1.8,7.7-4.4,10.6-7.8c0.5-0.6-0.3-1.4-0.9-0.9c-3.1,2.8-6.7,5.1-10.5,6.7c-1.5,0.6-3.1,1.1-4.6,1.5 c2.1-2.6,4-5.3,6.1-7.9c4.6-5.6,9.9-10.4,15.5-14.8c0.4-0.3-0.1-1.1-0.6-0.8c-5.8,3.9-10.9,8.8-15.6,14c-2.2,2.5-4.3,5.2-6.4,7.8 c-0.7,0.8-1.4,1.6-2.1,2.4c-0.3,0.1-0.7,0.1-1,0.2c2.1-2.5,3.6-5.6,5.3-8.4c1.7-2.8,3.5-5.7,5.5-8.3c3.8-5.1,8.3-9.6,13.4-13.5 C118.5,285.3,118,284.7,117.6,284.9z M190.4,195.1c1.5-0.4,2.7-1.6,4.5-0.2c0.8,0.6,1.5,2.1,1.8,3c0.8,2.8-0.6,7.5-3.9,7.6 c-3.5,0.2-4.9-3.6-4.2-6.5c0.1-0.5,0.3-0.9,0.5-1.3c0.4-0.5,0.6-1.1,0.9-1.7C190.1,195.6,190.3,195.4,190.4,195.1z M204,194.6 c0.4-0.3,0.7-1,0.9-1.4c0.1-0.1,0.2-0.2,0.3-0.4c0.2,0,0.4,0,0.7-0.1c1.6-0.8,3.2-1.5,5-1.5c3.8,0.1,3.6,5,1.9,7.3 c-1.7,2.3-5.2,3-7.4,0.9C203.8,198.1,203.9,196.3,204,194.6z M258,184.5c2.7-1.9,6.2-4.3,9.5-4.1c4.6,0.3,8,5.2,7.6,9.6 c-0.4,5.2-7.8,5.7-11.6,4.8C258.2,193.5,257.5,189.2,258,184.5z M264.4,154.4c3.4-1.5,6.9,2.1,8,5c0.6,1.6,0.5,3.4-0.1,5 c-0.8,2.1-1.7,2.4-4,2.6c-3.3,0.3-7-0.1-8.4-3.3c0,0,0,0,0,0C259.8,160.4,261.2,155.8,264.4,154.4z M246.1,134.7 c2.5-4.2,7.7-5.6,11.6-2.1c3.7,3.3,2.1,9.8-1.7,12.2c-1.8,1.1-8.4,4-10.7,2.2c-0.1-0.2-0.2-0.4-0.4-0.6c-0.1-0.1-0.1-0.1-0.2-0.2 c-0.1-0.1-0.2-0.2-0.3-0.3C242.3,143.5,244.8,136.8,246.1,134.7z M236.9,115.7c3.8-3.6,9.1,0.5,8.5,5.2c-0.3,1.9-1.5,3.1-3.1,4 c-0.7,0.4-1.5,0.7-2.2,0.9c-1.7,0.5-2.8,0.8-4.1-0.6c-0.3-0.4-0.6-0.7-0.8-1.2C234.6,121.2,234.6,117.9,236.9,115.7z M139.8,197 c0,0.2-0.1,0.3-0.1,0.5c-0.4,0.8-0.8,1.6-1.1,2.4c-0.2,0.3-0.4,0.7-0.7,1c0.5-2,0.9-4.1,1.3-6.1c0,0,0,0,0.1,0 c0.2-0.2,0.4-0.4,0.6-0.6C139.7,195.1,139.7,196.1,139.8,197z M146.4,185.7c-1.3,2.5-2.9,5.1-4.4,7.7c0.2-0.9,0.5-1.7,0.7-2.5 c1.3-1.7,2.5-3.5,3.6-5.3c0.9-1.6,1.8-3.2,2.6-4.9C148.1,182.3,147.3,184,146.4,185.7z M155.8,132.6c-0.4,9.1-1.1,18.2-2.3,27.2 c-1.2,8.2-3,16.3-7,23.6c-0.8,1.4-1.6,2.7-2.5,4c0.1-0.3,0.2-0.5,0.3-0.8c2-5.6,4.1-11.2,5.3-17c1.2-6,1.8-12.1,2.1-18.2 c0.3-6.3,0.6-12.7,0.8-19.1c0.3-7.3,0.6-14.6,0.8-21.9c0-0.4-0.7-0.4-0.7,0c-0.8,12.9-1.3,25.9-2.3,38.8c-0.4,6.3-1,12.6-2.2,18.7 c-0.8,4.2-2,8.1-3.3,12.1c0,0,0,0,0-0.1c0.4-2.1,0.5-4.2,0.7-6.3c0.6-9.2,0.4-18.3-0.2-27.5c0-0.6-0.9-0.6-0.9,0 c0.5,9.2,0.4,18.5-0.2,27.7c-0.1,2.3-0.3,4.6-0.8,6.9c-0.5,2.2-1.3,4.2-2,6.3c-0.6,1.7-1,3.6-1.3,5.5c-0.2,0.2-0.4,0.5-0.6,0.7 c1-6.8,1.1-13.8,1-19.9c-0.2-15.6-2.7-31.2-2-46.9c0.7-15.3,4.8-31.2,10.4-45.5c5.3-13.5,14.8-23.1,25.3-32.6 c-2.5,4.4-3.8,10.2-5.1,14.8c-1.7,5.9-2.9,11.9-3.5,18c-1.4,14.5,0.8,29-0.8,43.6c-1.5,13.9-5,27.5-9.8,40.6c-1.5,4-3.1,8-4.8,11.9 c0.4-0.9,0.7-1.8,1-2.7c2.9-8.4,3.7-17.5,4.5-26.3c0.4-5.3,0.7-10.7,0.7-16C156.4,132.2,155.8,132.2,155.8,132.6z M223.4,106.2 c1.4-0.4,2.9-0.8,4.3-1.1c3-0.6,6-1,9-1.3c5.8-0.5,11.6-0.6,17.4-0.8c0.6,0,0.6-0.9,0-0.9c-6-0.2-11.9-0.1-17.9,0.4 c-1.5,0.1-3.1,0.3-4.6,0.5c0.2-0.1,0.3-0.1,0.5-0.2c3.5-1,7.1-1.9,10.7-2.5c7.3-1.4,14.7-2.4,22.1-3.5c4.2-0.6,8.5-1.3,12.6-2.3 c0.5-0.1,0.3-0.8-0.2-0.7c-7.5,1.4-15.1,2.3-22.7,3.2c-7.4,0.9-14.7,1.9-21.9,4c-0.2,0-0.3,0.1-0.5,0.1c0.8-0.4,1.5-0.8,2.3-1.2 c0.6-0.2,1.3-0.4,1.9-0.5c2.1-0.5,4.2-0.9,6.3-1.4c4.2-0.9,8.4-2,12.4-3.7c0.5-0.2,0.1-1-0.3-0.8c-4.1,1.4-8.4,2.5-12.6,3.4 c-0.8,0.2-1.7,0.4-2.5,0.5c1.6-0.7,3.2-1.4,4.9-2.1C256,90.9,268,87.4,280.2,85c13.7-2.7,27.4-4,41.4-4.2 c13.2-0.3,26.3,1.3,39.5,1.3c-11.6,3.6-21.6,10.9-32.5,16.2c-13.4,6.5-27.6,8.8-42.4,8.7c-13.9-0.1-27.7-1.8-41.6-2.7 c-7.3-0.5-14.8,0.2-21.8,2.3C223,106.5,223.2,106.4,223.4,106.2z M345,44.5c-8.5,7.8-18.5,15-29.6,18.6c-5.3,1.7-10.5,3.1-15.7,5 c-5.4,2.1-11,3.9-16.7,5c-8.3,1.5-16.4,2-24.3,4.5c0.2-0.2,0.4-0.4,0.6-0.6c7.8-2.7,16-4.1,24.1-5.8c0.6-0.1,0.3-1-0.2-0.9 c-4.7,0.9-9.4,1.7-14.1,2.6c-1.8,0.4-3.7,0.7-5.5,1.2c2.3-1.3,4.7-2.5,7.1-3.6c6-2.8,12-5.6,18-8.5c0.5-0.2,0.1-0.9-0.4-0.7 c-6.4,2.8-12.7,5.7-19.1,8.6c-1.9,0.9-3.8,1.6-5.8,2.4c0,0,0,0,0,0c0.1-0.1,0.3-0.3,0.4-0.4c1-1.1,2.2-2.1,3.4-3 c2.4-1.7,5-3.2,7.8-4.1c0.5-0.2,0.3-1-0.2-0.8c-2.7,0.7-5.2,1.8-7.5,3.3c1.6-2.2,3.2-4.4,5-6.5c7.7-9.3,18.7-13.9,29.8-17.9 c18.4-6.6,38.5-7.4,56.9-13.8C354.3,34.1,350.1,39.8,345,44.5z" style="fill: inherit;"/><path d="M210.2,245.8c-8.8,3.7-18.4,5-27.4,8.1c-4.4,1.5-8.7,3.3-12.8,5.3c-2.1,1-4.4,1.8-6.3,3.1 c-2.1,1.4-4.4,2.3-6.6,3.5c-0.5,0.3-0.1,0.9,0.4,0.7c2.2-1.1,4.3-2.6,6.7-3.3c1-0.3,2-1,2.9-1.4c1.1-0.5,2.2-1.1,3.4-1.6 c4.4-2.1,8.9-4,13.4-5.6c8.8-3,18.3-3.9,26.7-8C211.2,246.3,210.7,245.6,210.2,245.8z" style="fill: inherit;"/><path d="M154.3,267.6c-0.8,0.4-1.5,0.8-2.3,1.2c-0.4,0.2-0.7,0.4-1.1,0.6c-0.2,0.1-0.3,0.3-0.5,0.4 c-0.2,0.1-0.4,0.2-0.5,0.4c0,0.1,0,0.2,0.1,0.2c0.2,0,0.4-0.1,0.6-0.2c0.2-0.1,0.4-0.1,0.6-0.2c0.4-0.2,0.8-0.3,1.2-0.5 c0.8-0.4,1.6-0.8,2.4-1.2C155.3,268.1,154.9,267.3,154.3,267.6z" style="fill: inherit;"/><path d="M146.5,271.2c-1.2,0.6-2.4,1.5-3.5,2.3c-1.1,0.8-2.3,1.7-3.4,2.5c-1.1,0.8-2.2,1.6-3.3,2.4 c-0.6,0.4-1.2,0.8-1.7,1.3c-0.4,0.3-1,0.6-1.1,1.2c0,0.2,0.1,0.3,0.2,0.3c0.6,0,1-0.4,1.5-0.7c0.6-0.4,1.2-0.9,1.7-1.3 c1.1-0.8,2.3-1.6,3.4-2.4c1.1-0.8,2.2-1.5,3.4-2.2c1.2-0.7,2.4-1.5,3.5-2.4C147.7,271.7,147,270.9,146.5,271.2z" style="fill: inherit;"/><path d="M130.9,281.7c-1.5,1.1-3,2.2-4.5,3.3l-2.2,1.6c-0.7,0.5-1.6,1.1-2.2,1.7c-0.4,0.4,0.1,1,0.5,0.7 c0.8-0.4,1.5-1.1,2.1-1.6c0.7-0.6,1.5-1.2,2.2-1.8c1.5-1.2,2.9-2.3,4.4-3.5C131.6,282,131.2,281.4,130.9,281.7z" style="fill: inherit;"/><path d="M156.7,256.6c-5.3,2-10.4,4.4-15.3,7.3c-4.8,2.8-9.8,6-13.6,10.1c-0.3,0.3,0.1,0.8,0.4,0.6 c2.2-1.6,4.3-3.3,6.5-4.9c2.3-1.6,4.6-3.2,7-4.6c4.8-2.9,9.9-5.4,15.2-7.4C157.6,257.4,157.4,256.4,156.7,256.6z" style="fill: inherit;"/><path d="M124.2,277.5c-0.3,0.4-0.6,0.7-1,1.1c-0.3,0.4-0.6,0.8-0.9,1.2c-0.3,0.4-0.6,0.8-0.9,1.2 c-0.2,0.4-0.5,0.8-0.6,1.2c0,0.1,0.1,0.2,0.2,0.1c0.4-0.2,0.7-0.5,1-0.8c0.3-0.4,0.7-0.7,1-1.1c0.3-0.4,0.6-0.8,0.9-1.2 c0.3-0.4,0.6-0.8,0.9-1.2C124.9,277.6,124.4,277.2,124.2,277.5z" style="fill: inherit;"/><path d="M179,270.8c-2.6,1.8-5.3,3.4-8.1,4.8c-1.4,0.7-2.8,1.4-4.2,2c-1.3,0.6-2.9,0.9-4,2c-0.2,0.2,0,0.5,0.2,0.5 c1.4,0.1,2.8-0.8,4.1-1.3c1.5-0.7,2.9-1.4,4.3-2.1c2.8-1.5,5.5-3.2,8.1-5C179.9,271.3,179.5,270.5,179,270.8z" style="fill: inherit;"/><path d="M159.2,281.7c-6.2,2.2-12.7,4.1-18.7,6.9c-2.9,1.4-5.7,3.1-8.5,4.9c-1.4,0.9-2.8,1.9-4.2,2.8 c-1.1,0.8-2.6,1.6-3.4,2.7c-0.2,0.3,0.1,0.6,0.4,0.6c1.4-0.4,2.6-1.5,3.8-2.3c1.3-0.9,2.6-1.8,3.9-2.7c2.6-1.8,5.4-3.5,8.2-5 c5.9-3.1,12.3-5,18.6-7.1C160,282.3,159.7,281.5,159.2,281.7z" style="fill: inherit;"/><path d="M119.7,302.5c-0.2-0.2-0.5-0.2-0.7,0c-0.6,0.5-1.2,0.9-1.8,1.3c-0.3,0.2-0.6,0.4-0.9,0.6 c-0.2,0.1-0.5,0.3-0.6,0.5c0,0,0,0.1,0,0.1c0,0-0.1,0.1-0.1,0.1c0,0.1-0.1,0.2-0.1,0.3c-0.1,0.1,0.1,0.3,0.2,0.3 c0.1,0,0.2,0.1,0.2,0.1c0,0,0.2,0,0.2,0c0,0-0.1,0-0.1,0c0.1,0,0.1,0,0.2,0c0.2,0,0.5-0.2,0.7-0.3c0.3-0.2,0.7-0.4,1-0.6 c0.7-0.5,1.3-1,1.8-1.6C119.9,303,119.9,302.7,119.7,302.5z" style="fill: inherit;"/><path d="M216.2,248.2c-3.3,2-6.3,4.3-9.7,6.2c-1.6,0.9-3.3,1.8-4.9,2.6c-1.7,0.8-3.6,1.5-5.2,2.4 c-0.5,0.3-0.2,1.1,0.4,0.9c1.8-0.4,3.5-1.3,5.1-2.1c1.8-0.8,3.5-1.8,5.2-2.7c3.4-1.9,6.6-4.1,9.5-6.7 C217,248.5,216.6,247.9,216.2,248.2z" style="fill: inherit;"/><path d="M193.5,261.9c-0.1-0.2-0.4-0.3-0.6-0.2c-0.9,0.4-1.8,0.9-2.6,1.5c-0.4,0.3-0.9,0.5-1.2,0.9 c-0.4,0.4-0.7,0.7-1,1.1c-0.1,0.1,0.1,0.3,0.2,0.2c0.4-0.2,0.8-0.5,1.3-0.7c0.4-0.2,0.8-0.6,1.2-0.8c0.8-0.5,1.7-1,2.6-1.4 C193.6,262.4,193.6,262.1,193.5,261.9z" style="fill: inherit;"/><path d="M205.4,244.3c-5.1,1.5-10.4,2.4-15.6,3.1c-5.1,0.7-10.4,0.9-15.5,1.9c-0.4,0.1-0.3,0.7,0.1,0.7 c2.7-0.1,5.4-0.4,8.1-0.7c2.7-0.3,5.3-0.6,8-0.9c5.1-0.7,10.2-1.6,15.1-3.2C206.1,244.9,205.9,244.1,205.4,244.3z" style="fill: inherit;"/><path d="M169.1,251.4c-1.7,0.3-3.3,0.6-4.9,1.2c-0.8,0.3-1.5,0.7-2.3,1.1c-0.7,0.4-1.5,0.8-1.9,1.4 c-0.2,0.2,0.1,0.5,0.3,0.4c0.7-0.1,1.4-0.6,2.1-1c0.7-0.4,1.5-0.7,2.2-1c1.5-0.7,3-1.3,4.5-1.7 C169.5,251.8,169.4,251.3,169.1,251.4z" style="fill: inherit;"/><path d="M164.2,62.3c-4.1,6.6-6.5,14-8,21.6c-0.7,3.8-1.2,7.6-1.6,11.4c-0.4,4-1,8-0.9,12c0,0.3,0.6,0.4,0.6,0.1 c0.6-3.7,0.6-7.5,1-11.2c0.4-4,0.9-7.9,1.6-11.8c1.4-7.6,3.8-15.1,7.8-21.8C164.8,62.3,164.4,62.1,164.2,62.3z" style="fill: inherit;"/><path d="M147.1,98.1c-1.3,5.1-2.7,10.2-3.1,15.5c-0.2,2.6-0.3,5.2-0.3,7.8c0,2.6-0.2,5.2,0.1,7.7c0,0.2,0.4,0.2,0.4,0 c0.4-2.4,0.3-4.8,0.4-7.3c0-2.6,0.1-5.2,0.3-7.8c0.4-5.3,1.7-10.6,2.8-15.8C147.7,97.9,147.2,97.7,147.1,98.1z" style="fill: inherit;"/><path d="M144.5,139.6c-0.1-0.6-0.1-1.2-0.2-1.8c-0.1-1.2-0.2-2.3-0.2-3.5c0-0.4-0.7-0.4-0.7,0c0,1.2,0,2.4,0.1,3.5 c0,0.6,0.1,1.1,0.2,1.7c0.1,0.5,0.2,1.2,0.5,1.7c0.1,0.1,0.4,0.1,0.4-0.1C144.7,140.7,144.6,140.1,144.5,139.6z" style="fill: inherit;"/><path d="M158.8,95.5c-0.3,5.7-0.9,11.4-1.7,17c-0.8,5.4-2,10.8-2.3,16.3c0,0.4,0.7,0.5,0.8,0.1c0.7-2.7,1-5.6,1.4-8.3 c0.4-2.8,0.9-5.6,1.3-8.5c0.8-5.5,1.2-11,1.4-16.6C159.7,94.9,158.9,94.9,158.8,95.5z" style="fill: inherit;"/><path d="M161.5,78.8c-0.4,2-0.8,4.1-1.4,6.1c-0.6,2-1.3,4-1.9,6c-0.1,0.4,0.5,0.7,0.7,0.3c0.9-1.9,1.4-3.9,2-5.9 c0.5-2.1,1-4.1,1.3-6.2C162.3,78.6,161.6,78.4,161.5,78.8z" style="fill: inherit;"/><path d="M327.4,86.3c-4,0.1-8,0.6-12,1c-3.9,0.4-7.9,0.5-11.8,0.8c-3.7,0.3-7.3,0.9-10.9,1.7 c-3.8,0.9-7.8,1.7-11.5,2.9c-0.2,0.1-0.2,0.3,0,0.3c3.7,0.1,7.3-1.2,10.8-2c3.9-0.9,7.8-1.6,11.8-2c3.9-0.4,7.7-0.8,11.6-1 c4-0.2,8-0.4,12-0.9C327.9,87.1,328,86.3,327.4,86.3z" style="fill: inherit;"/><path d="M289.4,86.5c-4.8,0-9.6,1.6-14.2,2.7l-7.3,1.7c-2.5,0.6-5.1,1-7.5,1.9c-0.4,0.1-0.3,0.8,0.1,0.7 c2.3-0.3,4.6-0.9,6.9-1.5c2.4-0.6,4.9-1.1,7.3-1.7c2.4-0.6,4.9-1.1,7.3-1.7c2.4-0.6,4.8-1.3,7.3-1.5 C289.8,87.2,289.9,86.5,289.4,86.5z" style="fill: inherit;"/><path d="M303.4,98.7c-4,0.7-8,1.3-12,1.6c-3.9,0.3-7.9,0-11.8,0.3c-0.5,0-0.4,0.6,0,0.7c4,0.5,8.2,0.1,12.2-0.3 c3.9-0.3,7.9-0.8,11.8-1.5C304.2,99.4,304,98.6,303.4,98.7z" style="fill: inherit;"/><path d="M276.4,100.9c-2.6,0-5.1,0-7.7,0.1c-1.3,0-2.6,0.1-3.8,0.2c-1.2,0.1-2.5,0.1-3.6,0.5c-0.2,0.1-0.2,0.4,0,0.5 c1.1,0.3,2.4,0.2,3.6,0.2c1.3,0,2.6,0,3.8,0c2.6-0.1,5.1-0.3,7.7-0.4C277,101.9,277,100.9,276.4,100.9z" style="fill: inherit;"/><path d="M320,92.5c-1.4,0.3-2.8,0.6-4.2,0.9c-0.7,0.1-1.4,0.3-2,0.5c-0.4,0.1-0.7,0.3-1.1,0.4c-0.3,0.1-0.7,0.2-1,0.3 c-0.3,0.1-0.1,0.6,0.2,0.6c0.4,0,0.7,0,1.1-0.1c0.4,0,0.7,0,1.1-0.1c0.7-0.1,1.4-0.2,2-0.4c1.4-0.4,2.8-0.8,4.2-1.2 C320.7,93.2,320.5,92.4,320,92.5z" style="fill: inherit;"/><path d="M313.6,83.5c-3.7,0.1-7.5-0.3-11.2-0.4c-1.8-0.1-3.5,0-5.2,0.2c-1.5,0.2-3.5,0.4-4.7,1.4 c-0.3,0.2,0,0.7,0.3,0.7c1.6-0.2,3.1-0.9,4.7-1.2c1.8-0.3,3.7-0.4,5.5-0.4c1.8,0,3.5,0,5.2,0.1c1.8,0.1,3.6-0.1,5.4-0.3 C313.7,83.7,313.7,83.5,313.6,83.5z" style="fill: inherit;"/><path d="M324.5,83.8c-1.4-0.1-2.8-0.2-4.2-0.2c-0.7,0-1.4,0-2.1,0.1c-0.7,0-1.4,0-2,0.3c-0.3,0.1-0.4,0.7,0,0.8 c0.7,0.1,1.4,0,2,0c0.7,0,1.4-0.1,2.1-0.1c1.4,0,2.8-0.1,4.2,0C325,84.7,325,83.9,324.5,83.8z" style="fill: inherit;"/><path d="M327.1,91c-0.3,0.1-0.6,0.2-0.9,0.3c0,0,0,0,0,0C326.5,91.3,326.8,91.2,327.1,91C327.1,91.1,327.1,91,327.1,91 z" style="fill: inherit;"/><path d="M336.1,45.4c-7,3.5-14.3,6.5-21.7,8.9c-3.6,1.2-7.3,2.2-11,3.1c-3.8,0.9-7.7,1.4-11.4,2.5 c-0.3,0.1-0.3,0.7,0.1,0.6c3.8-0.1,7.7-1.1,11.4-1.9c3.9-0.9,7.7-2,11.5-3.2c7.5-2.4,14.7-5.5,21.7-9.1 C337.2,46,336.7,45.2,336.1,45.4z" style="fill: inherit;"/><path d="M307.8,46.8c-4.7,3.4-10.7,4.3-16,6.5c-2.6,1.1-5.1,2.3-7.5,3.6c-2.5,1.4-5.3,2.8-7.1,5 c-0.1,0.1,0,0.4,0.2,0.3c2.6-1,4.9-2.9,7.3-4.3c2.7-1.5,5.4-2.8,8.3-4c5.1-2.1,10.9-3.1,15.4-6.4C308.7,47.2,308.2,46.4,307.8,46.8 z" style="fill: inherit;"/><path d="M307.4,60.1c-3.3,1.4-6.6,2.8-9.9,4.1c-1.6,0.6-3.2,1.3-4.9,1.8c-1.7,0.6-3.4,0.9-4.9,1.8 c-0.2,0.1-0.1,0.5,0.1,0.5c1.8,0.1,3.5-0.5,5.2-1.1c1.7-0.6,3.4-1.2,5-1.9c3.3-1.4,6.5-2.8,9.8-4.3C308.4,60.9,308,59.9,307.4,60.1 z" style="fill: inherit;"/><path d="M328.2,40.1c-2.8,1-5.5,2.1-8.2,3.3c-1.4,0.6-2.7,1.3-4.1,1.9c-1.2,0.6-2.7,1.2-3.8,2.1 c-0.3,0.3,0,0.7,0.4,0.6c0.7-0.2,1.3-0.5,1.9-0.8c0.7-0.3,1.4-0.6,2-1c1.3-0.6,2.6-1.2,3.8-1.7c2.7-1.2,5.4-2.4,8.2-3.4 C329,40.9,328.8,39.9,328.2,40.1z" style="fill: inherit;"/></g><g><g id="__id345_sjxk3snmlu"><path d="M467.2,781.5c-52.8,0-103.9-10.3-152.1-30.7c-46.5-19.7-88.3-47.9-124.2-83.7 c-35.9-35.9-64.1-77.7-83.7-124.2c-20.4-48.2-30.7-99.4-30.7-152.1c0-0.8,0.7-1.5,1.5-1.5c0.8,0,1.5,0.7,1.5,1.5 c0,213.9,174,387.8,387.8,387.8S855,604.6,855,390.8C855,176.9,681,2.9,467.2,2.9c-29.9,0-59.8,3.4-88.6,10.2 c-0.8,0.2-1.6-0.3-1.8-1.1c-0.2-0.8,0.3-1.6,1.1-1.8C407,3.4,437,0,467.2,0c52.8,0,103.9,10.3,152.1,30.7 c46.5,19.7,88.3,47.9,124.2,83.7c35.9,35.9,64.1,77.7,83.7,124.2c20.4,48.2,30.7,99.4,30.7,152.1s-10.3,103.9-30.7,152.1 c-19.7,46.5-47.9,88.3-83.7,124.2c-35.9,35.9-77.7,64.1-124.2,83.7C571.1,771.2,519.9,781.5,467.2,781.5z" style="fill: rgb(232, 188, 205);"/></g></g></svg>