<svg xmlns="http://www.w3.org/2000/svg" version="1.0" viewBox="0 -0.1 610.1 81.7" style="fill:#000000">
    <path d="M136.742 80.857a1.526 1.526 0 0 1 .029-1.176c.162-.263 4.447-3.7 9.522-7.641 27.286-21.183 35.574-25.327 60.827-30.412l7.92-1.594-7.68-.3c-4.224-.163-8.76-.452-10.08-.641-8.29-1.186-15.659-2.621-28.8-5.609L153.6 30.1l-5.04 1.046c-6.079 1.261-11.143 3.168-19.44 7.319-12.678 6.344-23.218 9.774-34.226 11.14-7.7.956-38.941 2.412-39.51 1.842-.87-.869 1.381-2.066 11.605-6.175 31.851-12.8 44.028-16.637 57.331-18.063l5.76-.617-4.8-.3c-2.64-.167-9.673-.329-15.63-.36-10.781-.056-10.849-.05-15 1.352-5.14 1.737-9.773 4.05-17.85 8.916-11.365 6.844-18.56 9.691-38.173 15.108-10.874 3-12.792 3.183-10.826 1.01.811-.9 8.888-6.622 16.6-11.768A94.2 94.2 0 0 1 74.16 28.03l5.04-1.191-4.8.141c-4.486.132-5.366.34-13.44 3.173-21.769 7.638-22.119 7.706-42.24 8.23-8.976.233-16.86.484-17.52.557-.78.087-1.2-.1-1.2-.549 0-.882 22.077-11.541 27.44-13.249a72.893 72.893 0 0 1 7.7-1.928c4.944-.882 15.262-.875 21.382.014l6.6.957c.924.133-1.128-.7-4.56-1.843s-9.48-3.384-13.44-4.972-8.388-3.268-9.84-3.735c-3.046-.978-4.067-1.647-3.453-2.26.666-.666 33.715-.989 39.636-.387 6.736.685 11.661 2.16 22.377 6.7 13.131 5.566 13.475 5.649 24.675 5.993 8.507.261 14.742.7 20.685 1.464 1.056.135-.6-.5-3.684-1.412-9.638-2.852-14.635-4.917-28-11.57C100.392 8.616 92.616 5.1 90.24 4.35c-3.457-1.09-4.32-1.545-4.32-2.279 0-.825.533-.955 5.28-1.292 9.8-.694 26.973.864 36.178 3.281 6.4 1.681 10.622 3.821 25.022 12.694 17.818 10.975 27.182 15.891 33.309 17.486 5.393 1.405 14.881 2.346 24.051 2.384 9.545.04 12.233-.257 22.32-2.472l6-1.318-7.44-.3c-16.49-.672-27.055-4.22-47.28-15.876-15.305-8.82-20.849-11.379-29.312-13.528-4.865-1.235-5.836-1.74-5.232-2.718.277-.448 2.109-.512 7.614-.266 34.85 1.56 48.168 4.68 69.89 16.374 11.593 6.241 21.915 10.141 29.578 11.177a33.543 33.543 0 0 0 8.582-.183c13.743-1.639 25.267-.317 36.688 4.21l3.567 1.414 4.353-1.657a78.841 78.841 0 0 1 15.872-4.146c4.567-.65 14.261-.57 20.5.168 5.984.707 9.311.41 15.5-1.386 6.86-1.991 13.287-4.745 22.32-9.564 4.62-2.465 10.179-5.257 12.354-6.2C410.017 4.071 425.068 1.4 453.17.143c5.506-.247 7.337-.183 7.614.265.606.98-.315 1.439-5.785 2.883-8.556 2.259-14.332 4.995-30.919 14.646-17.346 10.092-29.263 13.947-45.12 14.593l-7.44.3 5.017 1.1c11.264 2.462 13.389 2.71 23.063 2.685 9.628-.022 19.393-.982 24.419-2.4 6.87-1.934 14.494-5.957 33.83-17.849C474.772 5.962 479.673 3.907 491.76 2.147c7.716-1.123 20.7-1.789 26.64-1.368 4.7.334 5.28.474 5.28 1.269 0 .711-1.184 1.31-5.76 2.916a190.1 190.1 0 0 0-17.52 8.01c-11.355 5.782-17.639 8.3-28.56 11.447q-3.361.968-1.44.724c6.03-.766 12.192-1.2 20.685-1.462 8.929-.274 9.854-.39 14.115-1.767 2.508-.81 7.114-2.627 10.236-4.037A91.758 91.758 0 0 1 532.8 11.67c3.38-.775 6.228-.884 23.76-.909 10.956-.017 20.312.153 20.791.375 1.119.52.357 1.547-1.491 2.009-.715.179-5.188 1.851-9.94 3.717s-11.448 4.332-14.88 5.479-5.484 1.977-4.56 1.843l6.6-.956c10.089-1.465 21.33-.71 29.372 1.973 2.9.967 20.389 8.951 25.951 11.845 1.719.9 1.572 2.061-.24 1.9-.792-.07-8.676-.32-17.52-.557-11.7-.313-17.06-.644-19.68-1.213-1.98-.431-9.756-2.87-17.28-5.421-13.235-4.486-13.836-4.642-18.48-4.778l-4.8-.14 5.04 1.189a97.493 97.493 0 0 1 26.066 10.148c5.439 3.254 20.974 14.279 20.974 14.885a1.121 1.121 0 0 1-.444.87c-.595.368-19.939-4.958-27.954-7.7-8.054-2.751-13.2-5.206-22-10.488-7.959-4.779-12.13-6.85-17.361-8.625-3.571-1.211-4.014-1.247-14.88-1.2-6.159.028-13.143.194-15.519.369l-4.32.318 3.36.37c15.21 1.67 24.275 4.413 55.272 16.723 13.863 5.505 17.163 7.2 15.381 7.88-1.113.427-32.75-1.165-39.307-1.978-11.267-1.4-19.646-4.151-34.911-11.476-9.216-4.422-14.8-6.428-20.823-7.476-2.89-.5-3.557-.4-17.867 2.846-13.131 2.975-20.525 4.413-28.785 5.595-1.32.188-5.856.478-10.08.644l-7.68.3 6.96 1.35c23.574 4.574 33.279 9.025 54.24 24.876C473.272 79.511 473.827 80 472.681 81.145c-.427.427-.987.446-2.149.074-.865-.277-4.945-1.6-9.068-2.944s-11.215-3.206-15.759-4.142c-24-4.944-30.614-7.934-51.865-23.456-12.546-9.164-22.222-14.224-31.387-16.413-13.6-3.249-17.636-3.779-28.853-3.783-10.348-.006-10.671.025-16.08 1.5-3.036.827-6.245 1.812-7.13 2.188l-1.61.683 5.647 3.085c5.811 3.175 7.1 4.278 6.139 5.241-.389.39-2.533-.444-7.991-3.106-4.1-2-7.59-3.639-7.748-3.639s-3.656 1.638-7.774 3.64c-5.487 2.668-7.628 3.5-8.018 3.107-.949-.949.246-1.96 6.161-5.216l5.731-3.154-1.59-.649c-.875-.357-4.107-1.332-7.184-2.166-5.457-1.481-5.844-1.518-15.913-1.528-10.946-.011-13.447.3-27.36 3.391-10.115 2.249-19.565 7.016-32.4 16.345-22.21 16.144-28.39 18.954-52.642 23.936-4.65.956-12.142 2.967-16.99 4.562-4.769 1.568-8.934 2.852-9.255 2.852a1.064 1.064 0 0 1-.851-.7Zm19.734-7.48c2.114-.51 7.343-1.692 11.62-2.627 17-3.718 26.37-8.036 42.144-19.425 3.432-2.478 8.178-5.763 10.546-7.3a35.229 35.229 0 0 0 4.019-2.792c-.158 0-3.338 1.4-7.066 3.12l-13.588 6.253c-3.745 1.724-10.6 4.561-15.24 6.305s-11.336 4.431-14.886 5.971a52.518 52.518 0 0 1-6.645 2.611c-.748-.748 13.92-7.933 23.42-11.472 3.828-1.426 12.684-5.185 19.68-8.353s13.222-5.914 13.836-6.1 1.014-.444.889-.569a14.274 14.274 0 0 0-3.756.97A131.411 131.411 0 0 1 204 44.594c-14.443 3.019-24.781 7.232-36.275 14.785-6.053 3.978-23.613 16.9-24.152 17.769-.135.219 1.847-.331 4.406-1.223s6.382-2.038 8.5-2.548Zm308.4 2.843c-2.21-1.914-15.045-11.514-19.92-14.9A96.372 96.372 0 0 0 408.6 45.279a184.648 184.648 0 0 1-18.755-4.784 20 20 0 0 0-3.936-1.087c-.295.3 27.565 12.715 32.114 14.316 9.156 3.222 23.08 9.923 24.122 11.608.212.343.085.44-.342.26-.374-.157-3.418-1.477-6.766-2.935s-9.071-3.765-12.72-5.128c-9.09-3.4-10.643-4.061-24.754-10.583-6.8-3.141-12.492-5.712-12.653-5.712a36.617 36.617 0 0 0 4.125 2.9c2.428 1.595 7.366 5.014 10.972 7.6 16.239 11.636 25.081 15.538 44.717 19.736 5.148 1.1 12.06 2.924 15.36 4.052s6.108 2.074 6.24 2.1-.516-.6-1.44-1.4ZM39.48 49.11c7.532-2.05 21.126-6.835 25.8-9.081 2.376-1.142 6.372-3.32 8.88-4.841s6.288-3.7 8.4-4.853c7.036-3.825-4.877.006-19.648 6.316-8.9 3.8-11.387 4.6-9.117 2.932 1.526-1.123 9.64-5.072 15.053-7.326 5.468-2.277 4.332-2.309-2.608-.074-6.646 2.14-16.079 7.009-24.51 12.651-7.712 5.162-9.369 6.408-7.77 5.845.462-.162 2.946-.869 5.52-1.569Zm536.76 1.519c0-.618-17.357-11.652-21.84-13.884a99.515 99.515 0 0 0-16.8-6.287c-2.218-.527-1.442-.126 5.039 2.6 6.571 2.767 13.92 6.648 13.92 7.35 0 .245-.27.333-.6.2s-5.194-2.206-10.809-4.6c-8.934-3.8-19.88-7.752-21.43-7.728-.287.006 1.3.987 3.531 2.183s5.833 3.251 8.009 4.566c8.627 5.211 19.079 9.476 34.019 13.881 6.633 1.956 6.96 2.036 6.96 1.717ZM68.88 49.416c3.564-.258 8.856-.6 11.76-.759 18.477-1.015 28.811-3.641 45.505-11.561 9.193-4.362 12.265-5.613 17.135-6.981l3.12-.876-4.32.246c-8.878.507-17.658 2.561-33.841 7.914-5.675 1.878-10.589 3.527-10.919 3.664s-.6.038-.6-.221c0-.983 21.325-8.8 30.24-11.083 4.6-1.178 2.634-1.28-5.136-.266-10.819 1.413-17.732 3.514-42.624 12.955-17.74 6.728-20.811 8-18.48 7.675.924-.131 4.6-.448 8.16-.707Zm480.04.188c-5.426-2.354-31.955-12.3-39.64-14.855-9.519-3.17-15.767-4.659-23.044-5.493-6.547-.75-7.732-.589-3.6.489 4.409 1.149 12.105 3.678 20.4 6.7 7.153 2.609 9.84 3.82 9.84 4.434 0 .237-.27.318-.6.18s-5.244-1.786-10.919-3.664c-16.184-5.354-24.963-7.407-33.841-7.914l-4.32-.246 3.335.928c4.911 1.368 6.8 2.14 16.615 6.789 17.823 8.444 26.892 10.622 49.89 11.982 4.884.288 10.5.7 12.48.905 5.174.551 5.207.548 3.404-.239ZM33.437 35.689c5.511-.771 12.337-2.657 22.243-6.148l6.24-2.2-9.84.236c-5.412.129-11.643.352-13.846.494-2.593.167-3.9.09-3.712-.218.558-.9 5.343-1.456 15.638-1.81 8.939-.307 9.935-.414 7.44-.8-1.584-.247-6.876-.474-11.76-.506-7.731-.05-9.426.082-13.1 1.015-4.728 1.2-11.612 3.933-20.444 8.111l-5.938 2.811 10.981-.135c6.342-.077 13.143-.436 16.1-.85Zm568.483.4c-3.279-1.791-16.039-7.463-19.674-8.746-6.562-2.316-12.734-3.107-21.113-2.7-3.967.191-8.293.518-9.613.727-2.325.368-2.279.383 1.44.47 7.087.165 20.149.946 21.24 1.27 2.42.719.877 1.191-3.12.955-2.31-.136-8.52-.345-13.8-.464l-9.6-.216 10.56 3.535c14 4.686 16.546 5.139 30.96 5.516 6.468.169 12.3.338 12.96.376 1.165.066 1.158.045-.24-.718Zm-360-6.855c.9-.386.9-.415.058-.446-2.048-.077-12.446-2.664-18.283-4.55-8.654-2.795-31.864-12.013-30.683-12.186.531-.077 4.409 1.08 8.617 2.573 25.009 8.87 37.094 12.54 44.131 13.4 1.989.243 1.459-.035-3.1-1.626-3.023-1.055-11.879-5.044-19.68-8.865-15.471-7.576-17.339-8.344-25.309-10.4A159.348 159.348 0 0 0 165.6 2.608l-5.28-.277 2.88 1.146A224.615 224.615 0 0 1 184.8 14.5c10.255 5.793 16.484 8.689 23.992 11.153 5.316 1.745 8.493 2.444 17.048 3.748 2.405.367 15.146.235 16.08-.166Zm146.052-.462c11.316-1.665 22.008-5.839 37.788-14.753A202.141 202.141 0 0 1 446.4 3.486l2.88-1.136-5.52.278c-13.642.688-28.059 3.055-37.717 6.193-3.195 1.038-10.783 4.429-19.427 8.68-7.8 3.838-16.656 7.841-19.68 8.9-4.6 1.607-5.106 1.873-3.1 1.637 6.816-.8 19.172-4.557 44.131-13.409 12.233-4.34 10.727-2.866-2.371 2.32-17.69 7-28.28 10.364-36.566 11.607-3.868.58-1.106 1.091 6.086 1.126a90.046 90.046 0 0 0 12.852-.906Zm-225.532-.688c-.4-.375-30.58-13.162-36.44-15.437-6.7-2.6-6.5-2.509-6.123-2.89.768-.768 19.05 5.836 31.323 11.314 7.216 3.221 13.194 5.763 13.554 5.763.123 0-3.093-2.018-7.146-4.484s-9.312-5.724-11.688-7.24a90.359 90.359 0 0 0-17.04-8.422c-6.88-2.216-19.637-3.857-29.931-3.85l-6.309.006L98.052 5.2c2.977 1.3 8.053 3.749 11.28 5.447 12.22 6.427 20.317 9.4 38.268 14.022 12.8 3.3 15.337 3.884 14.84 3.413Zm298.493-3.147c16.483-4.133 26.1-7.545 37.067-13.156 4.62-2.363 10.776-5.341 13.68-6.617l5.28-2.321-6.723-.006c-11.429-.009-23.95 1.856-31.844 4.739-5.1 1.863-8.948 3.948-19.848 10.758-4.832 3.019-9.811 6.078-11.065 6.8a13.624 13.624 0 0 0-2.28 1.478c0 .214 5.067-1.9 11.52-4.8 13.547-6.092 32.189-12.87 33.044-12.012.351.351.394.331-7.364 3.348-3.96 1.54-11.3 4.578-16.32 6.751s-11.28 4.862-13.92 5.977c-4.7 1.982-5.541 2.4-4.867 2.4.183 0 6.321-1.5 13.64-3.337ZM97.88 23.955c2.09 0 3.683-.118 3.54-.261a75.25 75.25 0 0 0-7.64-1.408c-8.559-1.333-32.58-6.561-32.58-7.092 0-.627 1.75-.4 10.7 1.367 9.831 1.945 24.5 4.483 24.719 4.278s-9.722-4.325-13.1-5.448c-7.242-2.4-9.123-2.592-27.84-2.773-12.585-.122-17.41-.026-16.56.327 6.35 2.638 18.97 7.01 24.327 8.427 10.175 2.691 13.2 3.069 22.473 2.812 4.488-.125 9.87-.228 11.96-.229Zm436.445-.035c8.3-1.135 19.213-4.371 33.035-9.8l4.32-1.7-17.76.185c-18.719.2-20.2.345-27.594 2.764-3.329 1.089-13.542 5.29-13.332 5.484s15.288-2.436 24.7-4.3c8.954-1.771 10.707-1.995 10.7-1.368 0 .506-23.425 5.684-30.958 6.845-10.159 1.565-10.284 1.649-2.88 1.936 12.235.475 15.972.465 19.765-.054Z" style="fill:inherit"/>
</svg>
