<svg xmlns="http://www.w3.org/2000/svg" width="316.1" height="36.5" viewBox="0 0 316.1 36.5"><path d="M218.4.1a18.2,18.2,0,1,0,18.2,18.2A18.2,18.2,0,0,0,218.4.1Zm0,33.3a15.2,15.2,0,1,1,15.2-15.2A15.193,15.193,0,0,1,218.4,33.4Z" fill="#d9d9d9"/><path d="M257.7.1a18.2,18.2,0,1,0,18.2,18.2A18.2,18.2,0,0,0,257.7.1Zm0,33.3a15.2,15.2,0,1,1,15.2-15.2A15.193,15.193,0,0,1,257.7,33.4Z" fill="#e7ad99"/><path d="M297.9.1a18.2,18.2,0,1,0,18.2,18.2A18.2,18.2,0,0,0,297.9.1Z" fill="#e7ad99"/><circle cx="6.1" cy="6.1" r="6.1" transform="translate(291.8 12.2)" fill="#fff"/><path d="M114.5,0H81.6a1.538,1.538,0,0,0-1.5,1.5v33A1.538,1.538,0,0,0,81.6,36h32.9a1.538,1.538,0,0,0,1.5-1.5V1.5A1.415,1.415,0,0,0,114.5,0Zm-.4,2V34" fill="#e7ad99"/><path d="M96.2,26.5a.75.75,0,0,1-.9,0L85.9,17a2,2,0,0,1,0-3,2.083,2.083,0,0,1,3,0l6.4,6.5a.561.561,0,0,0,.9,0L107,9.8a2,2,0,0,1,3,0,2,2,0,0,1,0,3Z" fill="#fff"/><path d="M34.5,0H1.5A1.538,1.538,0,0,0,0,1.5v33A1.538,1.538,0,0,0,1.5,36H34.4a1.538,1.538,0,0,0,1.5-1.5V1.5A1.391,1.391,0,0,0,34.5,0ZM33,33H3V3H33Z" fill="#d9d9d9"/><path d="M74.4,0h-33a1.538,1.538,0,0,0-1.5,1.5v33A1.538,1.538,0,0,0,41.4,36H74.3a1.538,1.538,0,0,0,1.5-1.5V1.5A1.391,1.391,0,0,0,74.4,0ZM72.9,33h-30V3h30Z" fill="#e7ad99"/></svg>