<svg xmlns="http://www.w3.org/2000/svg" width="24" height="24">
    <defs>
        <clipPath id="b">
            <path d="M0 0h24v24H0z"/>
        </clipPath>
        <style>
            .b{fill:none}
        </style>
    </defs>
    <g id="a" style="clip-path:url(#b)">
        <path class="b" d="M0 0h24v24H0Z"/>
        <path class="b" d="M0 0h24v24H0Z"/>
        <path class="b" d="M0 0h24v24H0Z"/>
        <path d="M13.955 26.5a2.969 2.969 0 0 1-2.112-.874l-5.281-5.28a10.454 10.454 0 1 1 14.785 0l-5.279 5.279a2.969 2.969 0 0 1-2.113.875Zm0-23a9.454 9.454 0 0 0-6.686 16.139l5.281 5.279a1.988 1.988 0 0 0 2.811 0l5.279-5.279A9.454 9.454 0 0 0 13.954 3.5Z" transform="translate(-1.954 -2.5)"/>
        <path class="b" d="M0 0h11.752v11.752H0Z" transform="translate(6.11 4.317)"/>
        <path d="M3.49 2.75h.979a.74.74 0 0 1 .74.74v1.958a.74.74 0 0 1-.74.74H3.49a.74.74 0 0 1-.74-.74V3.49a.74.74 0 0 1 .74-.74Zm.979 2.938a.24.24 0 0 0 .24-.24V3.49a.24.24 0 0 0-.24-.24H3.49a.24.24 0 0 0-.24.24v1.958a.24.24 0 0 0 .24.24Z" transform="translate(4.579 2.786)"/>
        <path d="M16.979 17.209a1.229 1.229 0 1 1 1.229-1.229 1.231 1.231 0 0 1-1.229 1.229Zm0-1.959a.729.729 0 1 0 .729.729.73.73 0 0 0-.729-.729Z" transform="translate(-2.056 -3.338)"/>
        <path d="M15.876 11.126H14.9a.25.25 0 0 1 0-.5h.729v-2.2c0-1.752-.986-3.178-2.2-3.178H10a.25.25 0 0 1 0-.5h3.428c1.488 0 2.7 1.65 2.7 3.678v2.448a.25.25 0 0 1-.252.252Z" transform="translate(1.006 1.765)"/>
        <path d="M11.917 17.25H8a.25.25 0 0 1 0-.5h3.917a.25.25 0 0 1 0 .5Z" transform="translate(2.027 -4.359)"/>
        <path d="M18.938 8.678h-2.2a.25.25 0 0 1-.244-.2L15.76 5.05a.25.25 0 0 1 .489-.1l.692 3.23h2a.25.25 0 0 1 0 .5Z" transform="translate(-2.056 1.765)"/>
        <path d="M13.172 10.25H9.5a.25.25 0 0 1 0-.5h3.672a.25.25 0 0 1 0 .5Z" transform="translate(1.262 -.786)"/>
        <path d="M12 7.7a.25.25 0 0 1-.25-.25V5a.25.25 0 0 1 .5 0v2.448A.25.25 0 0 1 12 7.7Z" transform="translate(-.014 1.765)"/>
        <path d="M5 14.636a.25.25 0 0 1-.25-.25V9a.25.25 0 0 1 .5 0v5.386a.25.25 0 0 1-.25.25Z" transform="translate(3.558 -.276)"/>
    </g>
</svg>
