<svg xmlns="http://www.w3.org/2000/svg" width="24" height="24">
    <defs>
        <clipPath id="b">
            <path d="M0 0h24v24H0z"/>
        </clipPath>
        <style>
            .b{fill:none}
        </style>
    </defs>
    <g id="a" style="clip-path:url(#b)">
        <path class="b" d="M0 0h24v24H0Z"/>
        <path class="b" d="M0 0h24v24H0Z"/>
        <path class="b" d="M0 0h24v24H0Z"/>
        <path d="M13.955 26.5a2.969 2.969 0 0 1-2.112-.874l-5.281-5.28a10.454 10.454 0 1 1 14.785 0l-5.279 5.279a2.969 2.969 0 0 1-2.113.875Zm0-23a9.454 9.454 0 0 0-6.686 16.139l5.281 5.279a1.989 1.989 0 0 0 2.811 0l5.279-5.279A9.454 9.454 0 0 0 13.954 3.5Z" transform="translate(-1.954 -2.515)"/>
        <path class="b" d="M0 0h12.864v11.091H0Z" transform="translate(5.541 3.283)"/>
        <path d="M4.936 5.25H4a.25.25 0 1 1 0-.5h.936a.25.25 0 0 1 0 .5Z" transform="translate(3.71 .594)"/>
        <path d="M5 5.186a.25.25 0 0 1-.25-.25V4a.25.25 0 1 1 .5 0v.936a.25.25 0 0 1-.25.25Z" transform="translate(3.221 1.129)"/>
        <path d="M11 5.186a.25.25 0 0 1-.243-.311l.234-.936a.25.25 0 0 1 .485.121l-.233.94a.25.25 0 0 1-.243.186Z" transform="translate(.453 1.129)"/>
        <path d="M18.936 5.25H18a.25.25 0 0 1 0-.5h.936a.25.25 0 0 1 0 .5Z" transform="translate(-2.7 .594)"/>
        <path d="M19 5.186a.25.25 0 0 1-.25-.25V4a.25.25 0 1 1 .5 0v.936a.25.25 0 0 1-.25.25Z" transform="translate(-3.275 1.129)"/>
        <path d="M14 9.718a.25.25 0 0 1-.177-.427l.468-.468a.25.25 0 0 1 .354.354l-.468.468a.249.249 0 0 1-.177.073Z" transform="translate(-.914 -1.56)"/>
        <path d="M18 12.984a.25.25 0 0 1-.06-.493l.936-.234a.25.25 0 1 1 .121.485l-.936.234a.251.251 0 0 1-.061.008Z" transform="translate(-2.7 -3.442)"/>
        <path d="M18.936 19.25H18a.25.25 0 0 1 0-.5h.936a.25.25 0 0 1 0 .5Z" transform="translate(-2.7 -6.937)"/>
        <path d="M19 19.186a.25.25 0 0 1-.25-.25V18a.25.25 0 0 1 .5 0v.936a.25.25 0 0 1-.25.25Z" transform="translate(-3.275 -6.409)"/>
        <path d="M3.466 15.4a.718.718 0 0 1-.651-1.021L4.869 9.9a.25.25 0 0 1 .4-.073l3.05 3.05a.25.25 0 0 1-.073.4l-4.478 2.054a.71.71 0 0 1-.302.069Zm1.707-4.967-1.9 4.155a.218.218 0 0 0 .289.291l4.157-1.905Z" transform="translate(3.946 -2.177)"/>
    </g>
</svg>
