<svg xmlns="http://www.w3.org/2000/svg" width="24" height="24">
    <defs>
        <clipPath id="b">
            <path d="M0 0h24v24H0z"/>
        </clipPath>
        <style>
            .b{fill:none}
        </style>
    </defs>
    <g id="a" style="clip-path:url(#b)">
        <path class="b" d="M0 0h23.476v23.483H0Z"/>
        <path class="b" d="M0 0h23.476v23.483H0Z"/>
        <path class="b" d="M0 0h23.476v23.483H0Z"/>
        <path d="M13.915 26.5a2.954 2.954 0 0 1-2.106-.875L6.55 20.344a10.48 10.48 0 0 1 0-14.781 10.415 10.415 0 0 1 17.78 7.391 10.4 10.4 0 0 1-3.05 7.391l-5.259 5.279a2.955 2.955 0 0 1-2.106.876Zm0-23a9.334 9.334 0 0 0-6.657 2.768 9.491 9.491 0 0 0 0 13.37l5.26 5.279a1.972 1.972 0 0 0 2.8 0l5.258-5.279a9.491 9.491 0 0 0 0-13.37A9.334 9.334 0 0 0 13.915 3.5Z" transform="translate(-1.915 -2.499)"/>
        <path d="M12.017 2.749a1.409 1.409 0 0 1 1 2.406l-1.534 1.584 1.365 4.1a.25.25 0 0 1-.059.254l-1.413 1.442a.25.25 0 0 1-.4-.057L9.157 9.069l-1.384 1.384v1.593a.25.25 0 0 1-.073.177l-1.131 1.13a.25.25 0 0 1-.414-.1l-.809-2.423-2.426-.809a.25.25 0 0 1-.1-.414l1.134-1.13a.25.25 0 0 1 .177-.077h1.592l1.386-1.382L3.73 5.2a.25.25 0 0 1-.058-.4l1.413-1.412a.25.25 0 0 1 .256-.06l4.1 1.365 1.587-1.534a1.4 1.4 0 0 1 .989-.41Zm.308 8.1-1.365-4.1a.25.25 0 0 1 .057-.253l1.64-1.7a.909.909 0 1 0-1.283-1.289l-1.7 1.643a.25.25 0 0 1-.253.057L5.329 3.851 4.262 4.918l3.379 1.819a.25.25 0 0 1 .058.4L6 8.83a.25.25 0 0 1-.177.073H4.234l-.771.771 2.16.72a.25.25 0 0 1 .158.158l.72 2.16.771-.771v-1.592a.25.25 0 0 1 .073-.177l1.7-1.7a.25.25 0 0 1 .4.059l1.818 3.4Z" transform="translate(3.912 2.145)"/>
    </g>
</svg>
